<svg width="1920" height="718" viewBox="0 0 1920 718" fill="none" xmlns="http://www.w3.org/2000/svg">
<path d="M1059.4 665.3H1071.66L1077.49 618.012L1059.4 618.013L1059.4 665.3Z" fill="#FFB6B6"/>
<path d="M1056.27 661.296L1080.42 661.295H1080.42C1084.5 661.295 1088.41 662.916 1091.3 665.802C1094.18 668.687 1095.8 672.601 1095.8 676.681V677.181L1056.27 677.183L1056.27 661.296Z" fill="#2F2E41"/>
<path d="M1101.4 665.3H1113.66L1119.49 618.012L1101.4 618.013L1101.4 665.3Z" fill="#FFB6B6"/>
<path d="M1098.27 661.296L1122.42 661.295H1122.42C1126.5 661.295 1130.41 662.916 1133.3 665.802C1136.18 668.687 1137.8 672.601 1137.8 676.681V677.181L1098.27 677.183L1098.27 661.296Z" fill="#2F2E41"/>
<path d="M1147.99 459.297L1118.04 644.282L1098.04 643.282L1098.53 473.427L1147.99 459.297Z" fill="#2F2E41"/>
<path d="M1067.25 402.779L1139.91 403.789L1147.99 459.297L1098.53 482.51L1077.04 639.282L1058.04 638.282L1051.1 444.158L1067.25 402.779Z" fill="#2F2E41"/>
<path d="M1110.65 259.467C1122.91 259.467 1132.85 249.527 1132.85 237.264C1132.85 225.001 1122.91 215.061 1110.65 215.061C1098.38 215.061 1088.44 225.001 1088.44 237.264C1088.44 249.527 1098.38 259.467 1110.65 259.467Z" fill="#FFB9B9"/>
<path d="M1121.04 272.281L1133.86 288.734L1127.8 414.889L1080.37 413.88L1072.29 303.873L1082.39 275.614L1086.04 269.281L1121.04 272.281Z" fill="#72BF44"/>
<path d="M1142.94 336.17L1154.04 378.558L1142.94 420.946L1161.11 445.168L1177.26 368.466C1177.26 368.466 1165.14 305.893 1164.14 298.828C1163.13 291.763 1161.11 290.754 1161.11 290.754L1153.03 291.763L1142.94 336.17Z" fill="#2F2E41"/>
<path d="M1062.2 352.318L1055.14 365.439L1053.12 387.642L1057.15 412.873L1043.03 436.086L1028.9 372.503L1044.03 290.754H1050.09L1062.2 352.318Z" fill="#2F2E41"/>
<path d="M1145.97 350.299L1141.93 388.65L1150.01 411.863L1155.05 434.066C1155.05 434.066 1155.05 455.26 1134.87 456.27C1114.68 457.279 1056.15 455.26 1056.15 455.26C1056.15 455.26 1048.07 454.251 1041.01 438.103C1033.94 421.955 1055.14 406.817 1055.14 406.817L1061.19 385.622L1059.17 359.382L1045.04 290.753L1086.93 269.055L1097.52 372.502L1120.23 272.082L1127.8 277.633L1160.1 290.753L1145.97 350.299Z" fill="#2F2E41"/>
<path d="M1088.5 238.999C1088.5 238.999 1089 237.999 1091 228.999C1091.5 217.999 1110 221.999 1120 220.999C1134.01 219.598 1132.71 240.499 1132.71 240.499C1132.71 240.499 1132.71 240.499 1134.5 230.499C1134.5 221.999 1132.71 212.428 1132.71 212.428C1131.26 202.558 1125 203.499 1125 203.499C1128.76 204.963 1125 208.999 1125 208.999C1121.5 200.999 1126.5 197.499 1126.5 197.499C1118 192.999 1103 202.499 1103 202.499C1090.41 205.355 1089.29 222.833 1089.29 222.833C1088 229.163 1088.5 238.999 1088.5 238.999Z" fill="#2F2E41"/>
</svg>
